<svg width="191" height="24" viewBox="0 0 191 24" fill="none" xmlns="http://www.w3.org/2000/svg">
<path d="M4.88211 23.1884H0V0H4.88211V23.1884Z" fill="white"/>
<path d="M31.0438 15.9668V0H35.8924V23.1884H30.91L19.1394 7.18839V23.1884H14.2574V0H19.2397L31.0438 15.9668Z" fill="white"/>
<path d="M43.4613 0H60.2142V4.27327H54.2621V23.1884H49.4133V4.27327H43.4613V0Z" fill="white"/>
<path d="M82.1323 0V4.27327H72.6355V9.24219H80.8282V13.5155H72.6355V18.9151H82.1323V23.1884H67.7535V0H82.1323Z" fill="white"/>
<path d="M109.689 23.1884H103.77L97.2161 13.648H95.6444V23.1884H90.7624V0H100.192C102.6 0 104.439 0.640439 105.71 1.92131C107.003 3.2022 107.649 4.88059 107.649 6.9565C107.649 10.3354 105.955 12.4002 102.566 13.1511L109.689 23.1884ZM95.6444 9.70596H99.49C100.56 9.70596 101.374 9.49617 101.931 9.07657C102.511 8.63489 102.8 7.9282 102.8 6.9565C102.8 6.00688 102.511 5.32226 101.931 4.90268C101.374 4.48308 100.56 4.27327 99.49 4.27327H95.6444V9.70596Z" fill="white"/>
<path d="M134.085 15.9668V0H138.933V23.1884H133.951L122.18 7.18839V23.1884H117.298V0H122.281L134.085 15.9668Z" fill="white"/>
<path d="M159.744 11.2298L167.836 23.1884H162.218L157.102 15.238L152.02 23.1884H146.435L154.494 11.2629L146.87 0H152.421L157.102 7.25463L161.817 0H167.401L159.744 11.2298Z" fill="white"/>
<path d="M173.528 0H190.281V4.27327H184.328V23.1884H179.48V4.27327H173.528V0Z" fill="white"/>
</svg>
